<svg width="16" height="15" viewBox="0 0 16 15" fill="none" xmlns="http://www.w3.org/2000/svg">
<path fill-rule="evenodd" clip-rule="evenodd" d="M2.39894 10.8803C2.97078 10.8803 3.51739 11.0531 3.93862 11.3696C4.36062 11.6853 4.69241 12.1799 4.69241 12.7915C4.69241 13.4031 4.36062 13.8977 3.93862 14.2135C3.51815 14.53 2.97078 14.7027 2.39894 14.7027C1.8271 14.7027 1.28049 14.53 0.859255 14.2135C0.437257 13.8985 0.105469 13.4031 0.105469 12.7915C0.105469 12.1799 0.437257 11.6853 0.859255 11.3696C1.27972 11.0523 1.8271 10.8803 2.39894 10.8803ZM2.39894 12.4093C2.12601 12.4093 1.9089 12.4934 1.77664 12.5927C1.68261 12.6631 1.6505 12.7227 1.63903 12.7594L1.63445 12.7915L1.6398 12.8236C1.6505 12.8603 1.68261 12.9199 1.77664 12.991C1.9089 13.0904 2.12601 13.1738 2.39894 13.1738C2.67186 13.1738 2.88897 13.0897 3.02123 12.9903C3.11526 12.9199 3.14737 12.8603 3.15884 12.8236L3.16343 12.7915L3.15808 12.7594C3.14737 12.7227 3.11526 12.6631 3.02123 12.592C2.88897 12.4934 2.67186 12.4093 2.39894 12.4093ZM8.45599 0.854004C9.59278 0.854004 10.5989 1.40979 11.2181 2.26372C11.9258 2.10055 12.6671 2.16751 13.3341 2.45488C14.0012 2.74224 14.5591 3.235 14.9266 3.86142C15.2941 4.48784 15.4522 5.21522 15.3776 5.93767C15.3031 6.66012 14.9999 7.33993 14.5123 7.87813C14.4983 8.44075 14.3453 8.99117 14.0669 9.48031C13.7886 9.96946 13.3935 10.3821 12.917 10.6816C12.4405 10.981 11.8973 11.1578 11.3358 11.1964C10.7743 11.2349 10.212 11.134 9.69905 10.9025C9.28985 11.2284 8.81118 11.4558 8.30004 11.5672C7.78891 11.6785 7.25901 11.6708 6.75133 11.5447C6.24364 11.4185 5.77177 11.1773 5.3722 10.8397C4.97263 10.502 4.65607 10.077 4.447 9.59747C3.77261 9.30382 3.2112 8.80005 2.84649 8.16128C2.48178 7.52251 2.33332 6.78296 2.42324 6.05292C2.51316 5.32289 2.83665 4.64147 3.34547 4.1103C3.85428 3.57912 4.52116 3.22664 5.24666 3.10543C5.48493 2.44568 5.92089 1.87548 6.49509 1.47257C7.06928 1.06967 7.75377 0.853659 8.45522 0.854004H8.45599ZM8.45599 2.38298C8.01137 2.38273 7.58104 2.54001 7.24137 2.82691C6.90171 3.11382 6.67467 3.51179 6.60057 3.95019C6.57283 4.11584 6.49131 4.26774 6.36861 4.38243C6.24591 4.49712 6.08885 4.56821 5.9217 4.58471L5.81009 4.58777C5.35867 4.58752 4.92219 4.74953 4.58025 5.04424C4.23831 5.33896 4.01368 5.74676 3.94732 6.19327C3.88096 6.63979 3.9773 7.09529 4.21876 7.4767C4.46022 7.85812 4.83073 8.14005 5.26271 8.27108C5.3831 8.30756 5.49262 8.37319 5.58157 8.46214C5.67052 8.55109 5.73615 8.66061 5.77263 8.781C5.87076 9.1036 6.05371 9.39393 6.30238 9.62166C6.55105 9.84939 6.85631 10.0062 7.18628 10.0756C7.51624 10.1451 7.8588 10.1246 8.17817 10.0164C8.49754 9.90827 8.782 9.71631 9.00183 9.46063C9.12563 9.31674 9.29852 9.22405 9.48688 9.20059C9.67524 9.17713 9.86559 9.22459 10.0209 9.33372C10.314 9.53937 10.6598 9.65713 11.0175 9.67318C11.3752 9.68922 11.7301 9.60288 12.0405 9.42429C12.3509 9.2457 12.6039 8.98228 12.7698 8.66494C12.9357 8.34761 13.0076 7.98953 12.9772 7.63273C12.9672 7.51422 12.985 7.39501 13.0292 7.28459C13.0734 7.17417 13.1428 7.07559 13.2318 6.99668C13.5699 6.69716 13.7891 6.28602 13.8492 5.83832C13.9093 5.39062 13.8065 4.93622 13.5594 4.55808C13.3122 4.17994 12.9374 3.90329 12.5032 3.77863C12.069 3.65398 11.6045 3.68963 11.1944 3.87909C11.1025 3.9216 11.0031 3.94543 10.9019 3.9492C10.8007 3.95297 10.6997 3.93659 10.6049 3.90103C10.5101 3.86547 10.4233 3.81143 10.3496 3.74204C10.2758 3.67266 10.2166 3.58931 10.1753 3.49684C10.0271 3.16485 9.78578 2.88295 9.48063 2.68526C9.17548 2.48757 8.81958 2.38258 8.45599 2.38298Z" fill="#737373"/>
</svg>
