<svg width="17" height="17" viewBox="0 0 17 17" fill="none" xmlns="http://www.w3.org/2000/svg">
<path d="M6.75992 16.2783L6.43992 13.7183C6.26659 13.6517 6.10339 13.5717 5.95032 13.4783C5.79726 13.385 5.64712 13.285 5.49992 13.1783L3.11992 14.1783L0.919922 10.3783L2.97992 8.81832C2.96659 8.72499 2.95992 8.63512 2.95992 8.54872V8.00872C2.95992 7.92179 2.96659 7.83165 2.97992 7.73832L0.919922 6.17832L3.11992 2.37832L5.49992 3.37832C5.64659 3.27165 5.79992 3.17165 5.95992 3.07832C6.11992 2.98499 6.27992 2.90499 6.43992 2.83832L6.75992 0.27832H11.1599L11.4799 2.83832C11.6533 2.90499 11.8167 2.98499 11.9703 3.07832C12.1239 3.17165 12.2738 3.27165 12.4199 3.37832L14.7999 2.37832L16.9999 6.17832L14.9399 7.73832C14.9533 7.83165 14.9599 7.92179 14.9599 8.00872V8.54792C14.9599 8.63485 14.9466 8.72499 14.9199 8.81832L16.9799 10.3783L14.7799 14.1783L12.4199 13.1783C12.2733 13.285 12.1199 13.385 11.9599 13.4783C11.7999 13.5717 11.6399 13.6517 11.4799 13.7183L11.1599 16.2783H6.75992ZM8.15992 14.6783H9.73992L10.0199 12.5583C10.4333 12.4517 10.8167 12.2951 11.1703 12.0887C11.5239 11.8823 11.8471 11.6322 12.1399 11.3383L14.1199 12.1583L14.8999 10.7983L13.1799 9.49832C13.2466 9.31165 13.2933 9.11512 13.3199 8.90872C13.3466 8.70232 13.3599 8.49219 13.3599 8.27832C13.3599 8.06445 13.3466 7.85459 13.3199 7.64872C13.2933 7.44285 13.2466 7.24605 13.1799 7.05832L14.8999 5.75832L14.1199 4.39832L12.1399 5.23832C11.8466 4.93165 11.5234 4.67512 11.1703 4.46872C10.8173 4.26232 10.4338 4.10552 10.0199 3.99832L9.75992 1.87832H8.17992L7.89992 3.99832C7.48659 4.10499 7.10339 4.26179 6.75032 4.46872C6.39725 4.67565 6.07379 4.92552 5.77992 5.21832L3.79992 4.39832L3.01992 5.75832L4.73992 7.03832C4.67325 7.23832 4.62659 7.43832 4.59992 7.63832C4.57326 7.83832 4.55992 8.05165 4.55992 8.27832C4.55992 8.49165 4.57326 8.69832 4.59992 8.89832C4.62659 9.09832 4.67325 9.29832 4.73992 9.49832L3.01992 10.7983L3.79992 12.1583L5.77992 11.3183C6.07325 11.625 6.39672 11.8818 6.75032 12.0887C7.10392 12.2957 7.48712 12.4522 7.89992 12.5583L8.15992 14.6783ZM8.99992 11.0783C9.77326 11.0783 10.4333 10.805 10.9799 10.2583C11.5266 9.71165 11.7999 9.05165 11.7999 8.27832C11.7999 7.50499 11.5266 6.84499 10.9799 6.29832C10.4333 5.75165 9.77326 5.47832 8.99992 5.47832C8.21325 5.47832 7.54979 5.75165 7.00952 6.29832C6.46926 6.84499 6.19939 7.50499 6.19992 8.27832C6.20046 9.05165 6.47059 9.71165 7.01032 10.2583C7.55005 10.805 8.21325 11.0783 8.99992 11.0783Z" fill="#737373"/>
</svg>
