<svg width="13" height="14" viewBox="0 0 13 14" fill="none" xmlns="http://www.w3.org/2000/svg">
<path d="M7.17517 13.5C7.45131 13.5012 7.67611 13.2782 7.67727 13.0021C7.67842 12.726 7.45551 12.5012 7.17937 12.5L7.17517 13.5ZM10.6052 2.43244L10.7624 2.9071C10.8938 2.86359 11.0013 2.76757 11.0593 2.64188C11.1172 2.5162 11.1205 2.37211 11.0683 2.24391L10.6052 2.43244ZM10.4852 0.811475C10.3811 0.555714 10.0893 0.432784 9.83358 0.536904C9.57782 0.641024 9.45489 0.932765 9.55901 1.18853L10.4852 0.811475ZM8.95643 2.45164C8.69428 2.53843 8.55213 2.8213 8.63892 3.08345C8.72571 3.3456 9.00858 3.48775 9.27073 3.40096L8.95643 2.45164ZM6.14158 7.78686H5.64158V8.09743L5.91999 8.23507L6.14158 7.78686ZM6.64158 4.53608C6.64158 4.25993 6.41773 4.03608 6.14158 4.03608C5.86544 4.03608 5.64158 4.25993 5.64158 4.53608H6.64158ZM8.16278 9.34387C8.41032 9.46625 8.71021 9.36479 8.83259 9.11724C8.95497 8.8697 8.85351 8.56982 8.60596 8.44744L8.16278 9.34387ZM8.82866 12.0884C8.60174 12.2457 8.54535 12.5572 8.7027 12.7842C8.86006 13.0111 9.17157 13.0675 9.3985 12.9101L8.82866 12.0884ZM10.307 12.2801C10.5339 12.1228 10.5903 11.8112 10.433 11.5843C10.2756 11.3574 9.96411 11.301 9.73719 11.4584L10.307 12.2801ZM10.9815 10.2229C10.8377 10.4587 10.9123 10.7664 11.1481 10.9101C11.3838 11.0539 11.6915 10.9793 11.8353 10.7435L10.9815 10.2229ZM12.4653 9.71035C12.609 9.47458 12.5344 9.16691 12.2987 9.02315C12.0629 8.87939 11.7552 8.95398 11.6115 9.18975L12.4653 9.71035ZM11.9416 7.78686C11.9416 8.063 12.1654 8.28686 12.4416 8.28686C12.7177 8.28686 12.9416 8.063 12.9416 7.78686H11.9416ZM12.9416 6.65286C12.9416 6.37672 12.7177 6.15286 12.4416 6.15286C12.1654 6.15286 11.9416 6.37672 11.9416 6.65286H12.9416ZM11.6174 5.08311C11.7664 5.31559 12.0757 5.38324 12.3082 5.23421C12.5407 5.08519 12.6083 4.77592 12.4593 4.54344L11.6174 5.08311ZM11.8293 3.56065C11.6803 3.32817 11.371 3.26051 11.1385 3.40954C10.906 3.55856 10.8384 3.86783 10.9874 4.10031L11.8293 3.56065ZM7.17727 13L7.17937 12.5C5.40288 12.4925 3.91 12.0284 2.86818 11.1204C1.83759 10.2222 1.18612 8.83558 1.18604 6.84473L0.686035 6.84475L0.186035 6.84477C0.186134 9.06938 0.924201 10.7526 2.21114 11.8743C3.48685 12.9861 5.23949 13.4919 7.17517 13.5L7.17727 13ZM0.686035 6.84475L1.18604 6.84473C1.18587 3.07466 5.53981 0.041869 10.3523 2.86375L10.6052 2.43244L10.8582 2.00112C5.48336 -1.15047 0.185828 2.18393 0.186035 6.84477L0.686035 6.84475ZM10.6052 2.43244L11.0683 2.24391L10.4852 0.811475L10.0221 1L9.55901 1.18853L10.1421 2.62096L10.6052 2.43244ZM10.6052 2.43244L10.4481 1.95777L8.95643 2.45164L9.11358 2.9263L9.27073 3.40096L10.7624 2.9071L10.6052 2.43244ZM6.14158 7.78686H6.64158V4.53608H6.14158H5.64158V7.78686H6.14158ZM6.14158 7.78686L5.91999 8.23507L8.16278 9.34387L8.38437 8.89565L8.60596 8.44744L6.36317 7.33864L6.14158 7.78686ZM9.11358 12.4992L9.3985 12.9101L10.307 12.2801L10.0221 11.8692L9.73719 11.4584L8.82866 12.0884L9.11358 12.4992ZM11.4084 10.4832L11.8353 10.7435L12.4653 9.71035L12.0384 9.45005L11.6115 9.18975L10.9815 10.2229L11.4084 10.4832ZM12.4416 7.78686H12.9416V6.65286H12.4416H11.9416V7.78686H12.4416ZM12.0384 4.81327L12.4593 4.54344L11.8293 3.56065L11.4084 3.83048L10.9874 4.10031L11.6174 5.08311L12.0384 4.81327Z" fill="#171717"/>
</svg>
