<svg width="16" height="16" viewBox="0 0 16 16" fill="none" xmlns="http://www.w3.org/2000/svg">
<path fill-rule="evenodd" clip-rule="evenodd" d="M0 7.22684C0 6.50545 0.286571 5.8136 0.79667 5.30351C1.30677 4.79341 1.99861 4.50684 2.72 4.50684H4.484V6.10684H2.72C2.42296 6.10684 2.13808 6.22484 1.92804 6.43488C1.718 6.64492 1.6 6.92979 1.6 7.22684V12.9868C1.6 13.2839 1.718 13.5688 1.92804 13.7788C2.13808 13.9888 2.42296 14.1068 2.72 14.1068H8.48C8.77704 14.1068 9.06192 13.9888 9.27196 13.7788C9.482 13.5688 9.6 13.2839 9.6 12.9868V11.5468H11.2V12.9868C11.2 13.7082 10.9134 14.4001 10.4033 14.9102C9.89323 15.4203 9.20139 15.7068 8.48 15.7068H2.72C1.99861 15.7068 1.30677 15.4203 0.79667 14.9102C0.286571 14.4001 0 13.7082 0 12.9868V7.22684Z" fill="#5093B7"/>
<path fill-rule="evenodd" clip-rule="evenodd" d="M6.4002 0.292969H12.8002C13.6489 0.292969 14.4628 0.630111 15.0629 1.23023C15.6631 1.83034 16.0002 2.64428 16.0002 3.49297V9.89297C16.0002 10.7417 15.6631 11.5556 15.0629 12.1557C14.4628 12.7558 13.6489 13.093 12.8002 13.093H6.4002C5.5515 13.093 4.73757 12.7558 4.13745 12.1557C3.53734 11.5556 3.2002 10.7417 3.2002 9.89297V3.49297C3.2002 2.64428 3.53734 1.83034 4.13745 1.23023C4.73757 0.630111 5.5515 0.292969 6.4002 0.292969ZM6.4002 1.89297C5.97585 1.89297 5.56888 2.06154 5.26882 2.3616C4.96877 2.66166 4.8002 3.06862 4.8002 3.49297V9.89297C4.8002 10.3173 4.96877 10.7243 5.26882 11.0243C5.56888 11.3244 5.97585 11.493 6.4002 11.493H12.8002C13.2245 11.493 13.6315 11.3244 13.9316 11.0243C14.2316 10.7243 14.4002 10.3173 14.4002 9.89297V3.49297C14.4002 3.06862 14.2316 2.66166 13.9316 2.3616C13.6315 2.06154 13.2245 1.89297 12.8002 1.89297H6.4002Z" fill="#5093B7"/>
</svg>
