<svg width="14" height="16" viewBox="0 0 14 16" fill="none" xmlns="http://www.w3.org/2000/svg">
<path d="M5.44444 14.4762H8.55556C8.55556 15.3143 7.85556 16 7 16C6.14444 16 5.44444 15.3143 5.44444 14.4762ZM14 12.9524V13.7143H0V12.9524L1.55556 11.4286V6.85714C1.55556 4.49524 3.11111 2.4381 5.44444 1.75238V1.52381C5.44444 0.685714 6.14444 0 7 0C7.85556 0 8.55556 0.685714 8.55556 1.52381V1.75238C10.8889 2.4381 12.4444 4.49524 12.4444 6.85714V11.4286L14 12.9524ZM10.8889 6.85714C10.8889 4.72381 9.17778 3.04762 7 3.04762C4.82222 3.04762 3.11111 4.72381 3.11111 6.85714V12.1905H10.8889V6.85714Z" fill="#737373"/>
</svg>
