<svg width="12" height="11" viewBox="0 0 12 11" fill="none" xmlns="http://www.w3.org/2000/svg">
<path d="M11.8864 9.01093L6.80072 0.417379C6.71066 0.288504 6.59082 0.183268 6.45139 0.110605C6.31196 0.0379423 6.15706 0 5.99983 0C5.84261 0 5.6877 0.0379423 5.54827 0.110605C5.40884 0.183268 5.28901 0.288504 5.19894 0.417379L0.113287 9.01093C0.0366695 9.15004 -0.00234076 9.30672 0.00010863 9.46551C0.00255802 9.62429 0.0463823 9.7797 0.127254 9.91637C0.208126 10.053 0.323248 10.1663 0.461252 10.2448C0.599257 10.3234 0.75537 10.3646 0.914178 10.3644H11.0535C11.215 10.3704 11.3751 10.3333 11.5176 10.2571C11.6601 10.1809 11.7799 10.0682 11.8646 9.93055C11.9493 9.79291 11.9959 9.63525 11.9997 9.47369C12.0036 9.31212 11.9645 9.15243 11.8864 9.01093ZM0.946213 9.45142L5.99983 0.865878L11.0535 9.45142H0.946213Z" fill="#D23535"/>
<path d="M5.63672 3.58203H6.57771V7.00727H5.63672V3.58203Z" fill="#D23535"/>
<path d="M6.11472 8.9631C6.39328 8.9631 6.61909 8.72717 6.61909 8.43614C6.61909 8.14511 6.39328 7.90918 6.11472 7.90918C5.83617 7.90918 5.61035 8.14511 5.61035 8.43614C5.61035 8.72717 5.83617 8.9631 6.11472 8.9631Z" fill="#D23535"/>
</svg>
