<svg width="19" height="19" viewBox="0 0 19 19" fill="none" xmlns="http://www.w3.org/2000/svg">
<path d="M5.5 1.51758H3C1.89543 1.51758 1 2.41301 1 3.51758V6.01758C1 7.12215 1.89543 8.01758 3 8.01758H5.5C6.60457 8.01758 7.5 7.12215 7.5 6.01758V3.51758C7.5 2.41301 6.60457 1.51758 5.5 1.51758Z" stroke="#A5A5A5" stroke-width="1.5" stroke-linecap="round" stroke-linejoin="round"/>
<path d="M12.836 1.58557C13.2111 1.21063 13.7197 1 14.25 1C14.7803 1 15.2889 1.21063 15.664 1.58557L17.432 3.35357C17.8069 3.72863 18.0176 4.23724 18.0176 4.76757C18.0176 5.2979 17.8069 5.80652 17.432 6.18157L15.664 7.94957C15.2889 8.32452 14.7803 8.53515 14.25 8.53515C13.7197 8.53515 13.2111 8.32452 12.836 7.94957L11.068 6.18157C10.6931 5.80652 10.4824 5.2979 10.4824 4.76757C10.4824 4.23724 10.6931 3.72863 11.068 3.35357L12.836 1.58557Z" stroke="#A5A5A5" stroke-width="1.5" stroke-linecap="round" stroke-linejoin="round"/>
<path d="M6 11.5176H2.5C1.67157 11.5176 1 12.1892 1 13.0176V16.5176C1 17.346 1.67157 18.0176 2.5 18.0176H6C6.82843 18.0176 7.5 17.346 7.5 16.5176V13.0176C7.5 12.1892 6.82843 11.5176 6 11.5176Z" stroke="#A5A5A5" stroke-width="1.5" stroke-linecap="round" stroke-linejoin="round"/>
<path d="M15.5 11.5176H13C11.8954 11.5176 11 12.413 11 13.5176V16.0176C11 17.1221 11.8954 18.0176 13 18.0176H15.5C16.6046 18.0176 17.5 17.1221 17.5 16.0176V13.5176C17.5 12.413 16.6046 11.5176 15.5 11.5176Z" stroke="#A5A5A5" stroke-width="1.5" stroke-linecap="round" stroke-linejoin="round"/>
</svg>
